<svg xmlns="http://www.w3.org/2000/svg" width="64" height="64" viewBox="0 0 64 64" role="img" aria-label="LLM Code Auditor">
  <rect width="64" height="64" rx="14" fill="#111827"/>
  <path d="M16 19h32a4 4 0 0 1 4 4v18a4 4 0 0 1-4 4H16a4 4 0 0 1-4-4V23a4 4 0 0 1 4-4Z" fill="#F9FAFB"/>
  <path d="M23 28l-5 4 5 4M41 28l5 4-5 4" fill="none" stroke="#111827" stroke-width="4" stroke-linecap="round" stroke-linejoin="round"/>
  <path d="M35 25l-6 14" fill="none" stroke="#2563EB" stroke-width="4" stroke-linecap="round"/>
  <path d="M18 49l7-7h21" fill="none" stroke="#60A5FA" stroke-width="4" stroke-linecap="round" stroke-linejoin="round"/>
</svg>
